#!OML:ASF E:\motion texture\Top Level 1\Subject 1\Session 1\male.ASF
:FULLY-SPECIFIED
:DEGREES
130
root 9.77732 17.4541 6.82149 289.347 -88.6745 -280.443
lowerback 3.6058 -0.319029 -3.06301
upperback 0.445817 -0.532501 1.1594
thorax -1.52486 -0.247983 2.93728
lowerneck -12.6334 -2.6676 -5.52244
upperneck 4.06417 -3.32058 7.89774
head 3.48657 -1.37869 3.09081
rclavicle -3.8266e-015 2.22639e-014
rhumerus -33.3169 -3.28486 -64.6078
rradius 78.9867
rwrist 15.3295
rhand -18.0861 -27.9619
rfingers 7.12502
rthumb 8.18725 -57.7833
lclavicle -3.8266e-015 2.22639e-014
lhumerus -38.3284 -14.4409 96.5609
lradius 83.4053
lwrist -21.9072
lhand -5.28754 7.74252
lfingers 7.12502
lthumb 20.5171 36.6784
rfemur -39.607 -7.0821 11.2043
rtibia 20.2176
rfoot -3.58566 -17.5203
rtoes 1.06992
lfemur -6.56271 -4.65051 -22.7198
ltibia 24.4784
lfoot -20.9729 5.94361
ltoes -9.50226
131
root 9.61108 17.4351 6.80184 293.74 -88.4597 -284.752
lowerback 3.51582 -0.508319 -3.10606
upperback 0.413976 -0.783027 1.20838
thorax -1.48748 -0.372894 3.02285
lowerneck -12.5953 -2.57224 -5.38091
upperneck 4.00365 -3.2082 7.81574
head 3.45058 -1.32635 3.05066
rclavicle -2.83268e-015 1.59028e-015
rhumerus -34.1884 -3.71952 -64.995
rradius 79.6394
rwrist 15.2667
rhand -21.7094 -29.3104
rfingers 7.12502
rthumb 4.68941 -59.2385
lclavicle -2.83268e-015 1.59028e-015
lhumerus -37.8728 -14.1147 96.582
lradius 83.586
lwrist -21.4575
lhand -6.95473 8.28367
lfingers 7.12502
lthumb 18.9144 37.384
rfemur -39.2779 -6.09887 10.3411
rtibia 18.1921
rfoot -3.97828 -18.2982
rtoes 0.00318966
lfemur -5.8583 -4.64352 -22.8985
ltibia 24.151
lfoot -21.1259 5.94667
ltoes -9.96599
132
root 9.44335 17.4156 6.78112 296.841 -88.2382 -287.807
lowerback 3.44101 -0.695354 -3.15653
upperback 0.395191 -1.03121 1.26561
thorax -1.44424 -0.497001 3.12041
lowerneck -12.5505 -2.47472 -5.23569
upperneck 3.97059 -3.09226 7.70375
head 3.42118 -1.27317 3.00084
rclavicle -2.28602e-015 9.54166e-015
rhumerus -35.0228 -4.14614 -65.3693
rradius 80.1929
rwrist 15.2096
rhand -25.0213 -30.7201
rfingers 7.12502
rthumb 1.49095 -60.6947
lclavicle -2.28602e-015 9.54166e-015
lhumerus -37.3623 -13.7474 96.5657
lradius 83.5891
lwrist -21.0711
lhand -8.65789 8.88435
lfingers 7.12502
lthumb 17.2757 38.1365
rfemur -38.9464 -5.08045 9.47089
rtibia 16.4522
rfoot -4.3582 -19.0838
rtoes -0.921985
lfemur -5.11555 -4.68392 -23.0779
ltibia 23.8441
lfoot -21.2643 5.9537
ltoes -10.4887
133
root 9.27487 17.3957 6.7595 298.905 -88.024 -289.849
lowerback 3.37301 -0.876873 -3.20867
upperback 0.387243 -1.27221 1.33401
thorax -1.39299 -0.617936 3.22946
lowerneck -12.5217 -2.38614 -5.10519
upperneck 3.97107 -2.98602 7.5841
head 3.40551 -1.22447 2.95022
rclavicle 4.96962e-016 -1.63003e-014
rhumerus -35.8072 -4.55307 -65.72
rradius 80.6178
rwrist 15.2457
rhand -27.9563 -32.1043
rfingers 7.12502
rthumb -1.34369 -62.0798
lclavicle 4.96962e-016 -1.63003e-014
lhumerus -36.7777 -13.3469 96.5138
lradius 83.3889
lwrist -20.7351
lhand -10.3785 9.50985
lfingers 7.12502
lthumb 15.6191 38.8993
rfemur -38.6823 -4.13285 8.68053
rtibia 15.0951
rfoot -4.72073 -19.7453
rtoes -1.75897
lfemur -4.37103 -4.76119 -23.2454
ltibia 23.5833
lfoot -21.3834 5.9558
ltoes -11.091
134
root 9.10507 17.3751 6.73702 300.253 -87.8208 -291.189
lowerback 3.31783 -1.04854 -3.26167
upperback 0.374209 -1.50043 1.41266
thorax -1.35387 -0.732239 3.34881
lowerneck -12.4812 -2.30636 -5.00532
upperneck 3.99352 -2.88927 7.48254
head 3.39626 -1.17995 2.90954
rclavicle -1.58034e-014 -4.37326e-015
rhumerus -36.5764 -4.93037 -66.0321
rradius 80.9112
rwrist 15.4433
rhand -30.4796 -33.3587
rfingers 7.12502
rthumb -3.78058 -63.3049
lclavicle -1.58034e-014 -4.37326e-015
lhumerus -36.1644 -12.9287 96.4378
lradius 82.9943
lwrist -20.441
lhand -12.1925 10.101
lfingers 7.12502
lthumb 13.8715 39.6184
rfemur -38.5206 -3.37831 8.05374
rtibia 14.1973
rfoot -5.06337 -20.1435
rtoes -2.49672
lfemur -3.64193 -4.86906 -23.3998
ltibia 23.3852
lfoot -21.4895 5.94474
ltoes -11.7611
135
root 8.93432 17.3543 6.7138 301.102 -87.6353 -292.035
lowerback 3.26388 -1.21107 -3.31898
upperback 0.358105 -1.71654 1.51005
thorax -1.31783 -0.84044 3.48907
lowerneck -12.4358 -2.23781 -4.9461
upperneck 4.03317 -2.80341 7.40183
head 3.39323 -1.14028 2.88116
rclavicle -3.21037e-014 3.49861e-014
rhumerus -37.294 -5.26185 -66.2923
rradius 81.0313
rwrist 15.8095
rhand -32.548 -34.446
rfingers 7.12502
rthumb -5.77784 -64.3472
lclavicle -3.21037e-014 3.49861e-014
lhumerus -35.5082 -12.4892 96.343
lradius 82.3901
lwrist -20.1813
lhand -14.0194 10.6434
lfingers 7.12502
lthumb 12.1104 40.2729
rfemur -38.4835 -2.89991 7.65444
rtibia 13.7819
rfoot -5.35098 -20.1544
rtoes -3.18266
lfemur -2.95977 -4.99085 -23.5313
ltibia 23.2845
lfoot -21.5805 5.90851
ltoes -12.5264
136
root 8.76238 17.3339 6.68978 301.496 -87.4719 -292.439
lowerback 3.24059 -1.36472 -3.36596
upperback 0.328034 -1.92139 1.61536
thorax -1.3132 -0.942235 3.63207
lowerneck -12.39 -2.17592 -4.91143
upperneck 4.09756 -2.72507 7.34057
head 3.3989 -1.10348 2.86224
rclavicle 1.49089e-015 1.43125e-014
rhumerus -37.9742 -5.53712 -66.5149
rradius 80.98
rwrist 16.3015
rhand -34.1908 -35.2718
rfingers 7.12502
rthumb -7.36374 -65.1236
lclavicle 1.49089e-015 1.43125e-014
lhumerus -34.8461 -12.0297 96.218
lradius 81.5861
lwrist -19.9516
lhand -15.8169 11.1361
lfingers 7.12502
lthumb 10.3767 40.86
rfemur -38.5591 -2.72398 7.51436
rtibia 13.8424
rfoot -5.57522 -19.7244
rtoes -3.82983
lfemur -2.32336 -5.10808 -23.6375
ltibia 23.2931
lfoot -21.6567 5.8417
ltoes -13.4012
137
root 8.58925 17.314 6.66518 301.565 -87.3413 -292.517
lowerback 3.23735 -1.50855 -3.39118
upperback 0.282238 -2.11299 1.73187
thorax -1.33644 -1.03668 3.77475
lowerneck -12.3547 -2.1235 -4.87651
upperneck 4.18393 -2.65904 7.26895
head 3.41358 -1.07271 2.83919
rclavicle -1.80894e-014 1.11319e-014
rhumerus -38.616 -5.75802 -66.6999
rradius 80.7678
rwrist 16.833
rhand -35.4279 -35.7406
rfingers 7.12502
rthumb -8.55776 -65.5472
lclavicle -1.80894e-014 1.11319e-014
lhumerus -34.1847 -11.5434 96.065
lradius 80.5882
lwrist -19.7775
lhand -17.5156 11.5741
lfingers 7.12502
lthumb 8.73778 41.3732
rfemur -38.752 -2.82321 7.6316
rtibia 14.3517
rfoot -5.66003 -18.849
rtoes -4.50506
lfemur -1.75201 -5.21334 -23.7075
ltibia 23.422
lfoot -21.7145 5.74622
ltoes -14.3747
138
root 8.41506 17.2949 6.64007 301.247 -87.2499 -292.2
lowerback 3.24994 -1.64071 -3.39152
upperback 0.219049 -2.28857 1.86129
thorax -1.38741 -1.12236 3.91721
lowerneck -12.3301 -2.075 -4.83478
upperneck 4.28482 -2.59769 7.17629
head 3.43429 -1.04471 2.80819
rclavicle -1.23246e-014 -5.56597e-015
rhumerus -39.2104 -5.91887 -66.8472
rradius 80.4158
rwrist 17.3324
rhand -36.243 -35.8068
rfingers 7.12502
rthumb -9.34429 -65.5797
lclavicle -1.23246e-014 -5.56597e-015
lhumerus -33.5273 -11.0166 95.8889
lradius 79.4097
lwrist -19.6852
lhand -19.0401 12.0132
lfingers 7.12502
lthumb 7.26647 41.8684
rfemur -39.0374 -3.07636 7.93375
rtibia 15.2179
rfoot -5.58861 -17.658
rtoes -5.13803
lfemur -1.26364 -5.29617 -23.7395
ltibia 23.6861
lfoot -21.7521 5.63361
ltoes -15.4522
139
root 8.23978 17.2772 6.61448 300.892 -87.1995 -291.835
lowerback 3.28382 -1.76343 -3.3456
upperback 0.137156 -2.45043 2.00042
thorax -1.47158 -1.2004 4.04467
lowerneck -12.3087 -2.02481 -4.7845
upperneck 4.38313 -2.53375 7.06798
head 3.45432 -1.01602 2.77113
rclavicle -4.96962e-016 0
rhumerus -39.7896 -6.02805 -66.9701
rradius 79.9912
rwrist 17.7264
rhand -36.6256 -35.5464
rfingers 7.12502
rthumb -9.71347 -65.3024
lclavicle -4.96962e-016 0
lhumerus -32.8844 -10.4494 95.688
lradius 78.0756
lwrist -19.7176
lhand -20.3329 12.4451
lfingers 7.12502
lthumb 6.01839 42.3396
rfemur -39.3728 -3.35237 8.32716
rtibia 16.3246
rfoot -5.2562 -16.3574
rtoes -5.62095
lfemur -0.857364 -5.36817 -23.7249
ltibia 24.0721
lfoot -21.7515 5.51274
ltoes -16.642
